# xmcd
#
# Track frame offsets:
#	150
#	19030
#	37862
#	55857
#	78405
#	95042
#	112937
#	136355
#	155810
#	175767
#	190960
#	213622
#	229935
#	255895
#
# Disc length: 3709 seconds
#
# Revision: 0
# Processed by: cddbd v1.5.2PL0 Copyright (c) Steve Scherf et al.
# Submitted via: EasyCDDAExtractor 8.2.3.1
#
DISCID=b50e7b0e
DTITLE=Davey Pattison - Pictures
DYEAR=2003
DGENRE=Blues
TTITLE0=Waiting As Fast As I Can
TTITLE1=Married To The Blues
TTITLE2=Gypsy Woman's Got The Blues
TTITLE3=Judas
TTITLE4=I'm The Only One
TTITLE5=John Lee, Jimmy Reed And Mississippi Fred
TTITLE6=Pictures
TTITLE7=Born To The House Of Blues
TTITLE8=Wish
TTITLE9=Just Who You Are
TTITLE10=Mr. Henpecked
TTITLE11=Blues At My Window
TTITLE12=Hollywood
TTITLE13=Wild Mountain Thyme (For Nell)
EXTD=
EXTT0=
EXTT1=
EXTT2=
EXTT3=
EXTT4=
EXTT5=
EXTT6=
EXTT7=
EXTT8=
EXTT9=
EXTT10=
EXTT11=
EXTT12=
EXTT13=
PLAYORDER=
